<svg width="512" height="512" viewBox="0 0 512 512" fill="none" xmlns="http://www.w3.org/2000/svg">
<rect width="512" height="512" fill="white"/>
<rect width="512" height="512" fill="#222831"/>
<path d="M452.829 116.315V178.922H61.3334V116.315C61.3334 106.956 67.0087 98.8255 75.3466 94.7439C79.0076 92.9388 83.1766 91.9225 87.6082 91.9225H426.554C436.635 91.9225 445.393 97.1912 449.79 104.932C451.734 108.33 452.829 112.201 452.829 116.315Z" fill="#393E46"/>
<path d="M452.829 116.315V178.922H61.3334V116.315C61.3334 106.956 67.0087 98.8255 75.3466 94.7439C79.0076 92.9388 83.1766 91.9225 87.6082 91.9225H426.554C436.635 91.9225 445.393 97.1912 449.79 104.932C451.734 108.33 452.829 112.201 452.829 116.315Z" stroke="#837777"/>
<path d="M171.546 91.9879V138.268C171.546 142.83 167.843 146.532 163.281 146.532H125.266C120.704 146.532 117.001 142.83 117.001 138.268V91.9879H171.546Z" fill="#222831"/>
<path d="M171.546 91.9879V138.268C171.546 142.83 167.843 146.532 163.281 146.532H125.266C120.704 146.532 117.001 142.83 117.001 138.268V91.9879H171.546Z" stroke="#837777"/>
<path d="M383.938 91.9879V138.268C383.938 142.83 380.236 146.532 375.674 146.532H337.658C333.096 146.532 329.394 142.83 329.394 138.268V91.9879H383.938Z" fill="#222831"/>
<path d="M383.938 91.9879V138.268C383.938 142.83 380.236 146.532 375.674 146.532H337.658C333.096 146.532 329.394 142.83 329.394 138.268V91.9879H383.938Z" stroke="#837777"/>
<path d="M74.5562 95.8772V181.437H61.3334V117.802C61.3334 108.29 66.6886 100.026 74.5562 95.8772Z" fill="#222831"/>
<path d="M74.5562 95.8772V181.437H61.3334V117.802C61.3334 108.29 66.6886 100.026 74.5562 95.8772Z" stroke="#837777"/>
<path d="M140.141 229.853H182.661C184.943 229.853 186.793 231.703 186.793 233.985V276.505C186.793 278.787 184.943 280.637 182.661 280.637H140.141C137.86 280.637 136.009 278.787 136.009 276.505V233.985C136.009 231.703 137.86 229.853 140.141 229.853Z" fill="#E6E6E6"/>
<path d="M140.141 229.853H182.661C184.943 229.853 186.793 231.703 186.793 233.985V276.505C186.793 278.787 184.943 280.637 182.661 280.637H140.141C137.86 280.637 136.009 278.787 136.009 276.505V233.985C136.009 231.703 137.86 229.853 140.141 229.853Z" stroke="#837777"/>
<path d="M140.141 293.033H182.661C184.943 293.033 186.793 294.884 186.793 297.165V339.694C186.793 341.975 184.943 343.826 182.661 343.826H140.141C137.86 343.826 136.009 341.975 136.009 339.694V297.165C136.009 294.884 137.86 293.033 140.141 293.033Z" fill="#E6E6E6"/>
<path d="M140.141 293.033H182.661C184.943 293.033 186.793 294.884 186.793 297.165V339.694C186.793 341.975 184.943 343.826 182.661 343.826H140.141C137.86 343.826 136.009 341.975 136.009 339.694V297.165C136.009 294.884 137.86 293.033 140.141 293.033Z" stroke="#837777"/>
<path d="M140.141 356.222H182.661C184.943 356.222 186.793 358.073 186.793 360.355V402.874C186.793 405.156 184.943 407.006 182.661 407.006H140.141C137.86 407.006 136.009 405.156 136.009 402.874V360.355C136.009 358.073 137.86 356.222 140.141 356.222Z" fill="#E6E6E6"/>
<path d="M140.141 356.222H182.661C184.943 356.222 186.793 358.073 186.793 360.355V402.874C186.793 405.156 184.943 407.006 182.661 407.006H140.141C137.86 407.006 136.009 405.156 136.009 402.874V360.355C136.009 358.073 137.86 356.222 140.141 356.222Z" stroke="#837777"/>
<path d="M203.322 229.853H246.751C249.032 229.853 250.883 231.703 250.883 233.985V276.505C250.883 278.787 249.032 280.637 246.751 280.637H203.322C201.04 280.637 199.19 278.787 199.19 276.505V233.985C199.19 231.703 201.04 229.853 203.322 229.853Z" fill="#E6E6E6"/>
<path d="M203.322 229.853H246.751C249.032 229.853 250.883 231.703 250.883 233.985V276.505C250.883 278.787 249.032 280.637 246.751 280.637H203.322C201.04 280.637 199.19 278.787 199.19 276.505V233.985C199.19 231.703 201.04 229.853 203.322 229.853Z" stroke="#837777"/>
<path d="M203.322 293.033H246.751C249.032 293.033 250.883 294.884 250.883 297.165V339.694C250.883 341.975 249.032 343.826 246.751 343.826H203.322C201.04 343.826 199.19 341.975 199.19 339.694V297.165C199.19 294.884 201.04 293.033 203.322 293.033Z" fill="#E6E6E6"/>
<path d="M203.322 293.033H246.751C249.032 293.033 250.883 294.884 250.883 297.165V339.694C250.883 341.975 249.032 343.826 246.751 343.826H203.322C201.04 343.826 199.19 341.975 199.19 339.694V297.165C199.19 294.884 201.04 293.033 203.322 293.033Z" stroke="#837777"/>
<path d="M203.322 356.222H246.751C249.032 356.222 250.883 358.073 250.883 360.355V402.874C250.883 405.156 249.032 407.006 246.751 407.006H203.322C201.04 407.006 199.19 405.156 199.19 402.874V360.355C199.19 358.073 201.04 356.222 203.322 356.222Z" fill="#E6E6E6"/>
<path d="M203.322 356.222H246.751C249.032 356.222 250.883 358.073 250.883 360.355V402.874C250.883 405.156 249.032 407.006 246.751 407.006H203.322C201.04 407.006 199.19 405.156 199.19 402.874V360.355C199.19 358.073 201.04 356.222 203.322 356.222Z" stroke="#837777"/>
<path d="M267.411 229.853H310.84C313.122 229.853 314.972 231.703 314.972 233.985V276.505C314.972 278.787 313.122 280.637 310.84 280.637H267.411C265.13 280.637 263.279 278.787 263.279 276.505V233.985C263.279 231.703 265.13 229.853 267.411 229.853Z" fill="#E6E6E6"/>
<path d="M267.411 229.853H310.84C313.122 229.853 314.972 231.703 314.972 233.985V276.505C314.972 278.787 313.122 280.637 310.84 280.637H267.411C265.13 280.637 263.279 278.787 263.279 276.505V233.985C263.279 231.703 265.13 229.853 267.411 229.853Z" stroke="#837777"/>
<path d="M267.411 293.033H310.84C313.122 293.033 314.972 294.884 314.972 297.165V339.694C314.972 341.975 313.122 343.826 310.84 343.826H267.411C265.13 343.826 263.279 341.975 263.279 339.694V297.165C263.279 294.884 265.13 293.033 267.411 293.033Z" fill="#E6E6E6"/>
<path d="M267.411 293.033H310.84C313.122 293.033 314.972 294.884 314.972 297.165V339.694C314.972 341.975 313.122 343.826 310.84 343.826H267.411C265.13 343.826 263.279 341.975 263.279 339.694V297.165C263.279 294.884 265.13 293.033 267.411 293.033Z" stroke="#837777"/>
<path d="M267.411 356.222H310.84C313.122 356.222 314.972 358.073 314.972 360.355V402.874C314.972 405.156 313.122 407.006 310.84 407.006H267.411C265.13 407.006 263.279 405.156 263.279 402.874V360.355C263.279 358.073 265.13 356.222 267.411 356.222Z" fill="#E6E6E6"/>
<path d="M267.411 356.222H310.84C313.122 356.222 314.972 358.073 314.972 360.355V402.874C314.972 405.156 313.122 407.006 310.84 407.006H267.411C265.13 407.006 263.279 405.156 263.279 402.874V360.355C263.279 358.073 265.13 356.222 267.411 356.222Z" stroke="#837777"/>
<path d="M378.153 233.985V276.505C378.153 278.787 376.303 280.637 374.021 280.637H331.501C329.219 280.637 327.369 278.787 327.369 276.505V233.985C327.369 231.703 329.219 229.853 331.501 229.853H374.021C376.303 229.853 378.153 231.703 378.153 233.985Z" fill="#E6E6E6"/>
<path d="M378.153 233.985V276.505C378.153 278.787 376.303 280.637 374.021 280.637H331.501C329.219 280.637 327.369 278.787 327.369 276.505V233.985C327.369 231.703 329.219 229.853 331.501 229.853H374.021C376.303 229.853 378.153 231.703 378.153 233.985Z" stroke="#837777"/>
<path d="M331.501 293.033H374.021C376.303 293.033 378.153 294.884 378.153 297.165V339.694C378.153 341.975 376.303 343.826 374.021 343.826H331.501C329.219 343.826 327.369 341.975 327.369 339.694V297.165C327.369 294.884 329.219 293.033 331.501 293.033Z" fill="#E6E6E6"/>
<path d="M331.501 293.033H374.021C376.303 293.033 378.153 294.884 378.153 297.165V339.694C378.153 341.975 376.303 343.826 374.021 343.826H331.501C329.219 343.826 327.369 341.975 327.369 339.694V297.165C327.369 294.884 329.219 293.033 331.501 293.033Z" stroke="#837777"/>
<path d="M331.501 356.222H374.021C376.303 356.222 378.153 358.073 378.153 360.355V402.874C378.153 405.156 376.303 407.006 374.021 407.006H331.501C329.219 407.006 327.369 405.156 327.369 402.874V360.355C327.369 358.073 329.219 356.222 331.501 356.222Z" fill="#E6E6E6"/>
<path d="M331.501 356.222H374.021C376.303 356.222 378.153 358.073 378.153 360.355V402.874C378.153 405.156 376.303 407.006 374.021 407.006H331.501C329.219 407.006 327.369 405.156 327.369 402.874V360.355C327.369 358.073 329.219 356.222 331.501 356.222Z" stroke="#837777"/>
<path d="M73.1969 181.376H71.6969V182.876V439.371C71.6969 453.631 83.4417 465.145 97.8794 465.145H416.283C430.721 465.145 442.466 453.631 442.466 439.371V182.876V181.376H440.966H73.1969Z" fill="#F5F5F5" stroke="#837777" stroke-width="3"/>
<path d="M171.546 58.9309V125.045C171.546 129.607 167.843 133.31 163.281 133.31H138.489C133.927 133.31 130.224 129.607 130.224 125.045V58.9309C130.224 54.369 133.927 50.6666 138.489 50.6666H163.281C167.843 50.6666 171.546 54.369 171.546 58.9309Z" fill="#DB7093"/>
<path d="M171.546 58.9309V125.045C171.546 129.607 167.843 133.31 163.281 133.31H138.489C133.927 133.31 130.224 129.607 130.224 125.045V58.9309C130.224 54.369 133.927 50.6666 138.489 50.6666H163.281C167.843 50.6666 171.546 54.369 171.546 58.9309Z" stroke="#837777"/>
<path d="M136.01 231.853C136.01 230.749 136.905 229.853 138.01 229.853H184.794C185.898 229.853 186.794 230.749 186.794 231.853V278.637C186.794 279.742 185.898 280.637 184.794 280.637H138.01C136.905 280.637 136.01 279.742 136.01 278.637V231.853Z" fill="#FFD369"/>
<path d="M136.01 231.853C136.01 230.749 136.905 229.853 138.01 229.853H184.794C185.898 229.853 186.794 230.749 186.794 231.853V278.637C186.794 279.742 185.898 280.637 184.794 280.637H138.01C136.905 280.637 136.01 279.742 136.01 278.637V231.853Z" stroke="#837777"/>
<path d="M327.369 231.853C327.369 230.749 328.265 229.853 329.369 229.853H376.153C377.258 229.853 378.153 230.749 378.153 231.853V278.637C378.153 279.742 377.258 280.637 376.153 280.637H329.369C328.265 280.637 327.369 279.742 327.369 278.637V231.853Z" fill="#FFD369"/>
<path d="M327.369 231.853C327.369 230.749 328.265 229.853 329.369 229.853H376.153C377.258 229.853 378.153 230.749 378.153 231.853V278.637C378.153 279.742 377.258 280.637 376.153 280.637H329.369C328.265 280.637 327.369 279.742 327.369 278.637V231.853Z" stroke="#837777"/>
<path d="M199.19 231.853C199.19 230.749 200.085 229.853 201.19 229.853H248.883C249.988 229.853 250.883 230.749 250.883 231.853V278.637C250.883 279.742 249.988 280.637 248.883 280.637H201.19C200.085 280.637 199.19 279.742 199.19 278.637V231.853Z" fill="#FFD369"/>
<path d="M199.19 231.853C199.19 230.749 200.085 229.853 201.19 229.853H248.883C249.988 229.853 250.883 230.749 250.883 231.853V278.637C250.883 279.742 249.988 280.637 248.883 280.637H201.19C200.085 280.637 199.19 279.742 199.19 278.637V231.853Z" stroke="#837777"/>
<path d="M128.287 308.654C127.799 307.663 128.207 306.464 129.198 305.977L171.172 285.313C172.163 284.825 173.361 285.233 173.849 286.224L194.516 328.205C195.004 329.196 194.596 330.395 193.605 330.883L151.632 351.546C150.641 352.034 149.442 351.626 148.954 350.635L128.287 308.654Z" fill="#FFD369"/>
<path d="M128.287 308.654C127.799 307.663 128.207 306.464 129.198 305.977L171.172 285.313C172.163 284.825 173.361 285.233 173.849 286.224L194.516 328.205C195.004 329.196 194.596 330.395 193.605 330.883L151.632 351.546C150.641 352.034 149.442 351.626 148.954 350.635L128.287 308.654Z" stroke="#837777"/>
<path d="M327.369 295.033C327.369 293.929 328.265 293.033 329.369 293.033H376.153C377.258 293.033 378.153 293.929 378.153 295.033V341.826C378.153 342.93 377.258 343.826 376.153 343.826H329.369C328.265 343.826 327.369 342.93 327.369 341.826V295.033Z" fill="#E6E6E6"/>
<path d="M327.369 295.033C327.369 293.929 328.265 293.033 329.369 293.033H376.153C377.258 293.033 378.153 293.929 378.153 295.033V341.826C378.153 342.93 377.258 343.826 376.153 343.826H329.369C328.265 343.826 327.369 342.93 327.369 341.826V295.033Z" stroke="#837777"/>
<path d="M199.19 295.033C199.19 293.929 200.085 293.033 201.19 293.033H248.883C249.988 293.033 250.883 293.929 250.883 295.033V341.826C250.883 342.93 249.988 343.826 248.883 343.826H201.19C200.085 343.826 199.19 342.93 199.19 341.826V295.033Z" fill="#FFD369"/>
<path d="M199.19 295.033C199.19 293.929 200.085 293.033 201.19 293.033H248.883C249.988 293.033 250.883 293.929 250.883 295.033V341.826C250.883 342.93 249.988 343.826 248.883 343.826H201.19C200.085 343.826 199.19 342.93 199.19 341.826V295.033Z" stroke="#837777"/>
<path d="M136.01 358.223C136.01 357.118 136.905 356.223 138.01 356.223H184.794C185.898 356.223 186.794 357.118 186.794 358.223V405.007C186.794 406.111 185.898 407.007 184.794 407.007H138.01C136.905 407.007 136.01 406.111 136.01 405.007V358.223Z" fill="#E6E6E6"/>
<path d="M136.01 358.223C136.01 357.118 136.905 356.223 138.01 356.223H184.794C185.898 356.223 186.794 357.118 186.794 358.223V405.007C186.794 406.111 185.898 407.007 184.794 407.007H138.01C136.905 407.007 136.01 406.111 136.01 405.007V358.223Z" stroke="#837777"/>
<path d="M327.369 358.223C327.369 357.118 328.265 356.223 329.369 356.223H376.153C377.258 356.223 378.153 357.118 378.153 358.223V405.007C378.153 406.111 377.258 407.007 376.153 407.007H329.369C328.265 407.007 327.369 406.111 327.369 405.007V358.223Z" fill="#E6E6E6"/>
<path d="M327.369 358.223C327.369 357.118 328.265 356.223 329.369 356.223H376.153C377.258 356.223 378.153 357.118 378.153 358.223V405.007C378.153 406.111 377.258 407.007 376.153 407.007H329.369C328.265 407.007 327.369 406.111 327.369 405.007V358.223Z" stroke="#837777"/>
<path d="M199.19 358.223C199.19 357.118 200.085 356.223 201.19 356.223H248.883C249.988 356.223 250.883 357.118 250.883 358.223V405.007C250.883 406.111 249.988 407.007 248.883 407.007H201.19C200.085 407.007 199.19 406.111 199.19 405.007V358.223Z" fill="#E6E6E6"/>
<path d="M199.19 358.223C199.19 357.118 200.085 356.223 201.19 356.223H248.883C249.988 356.223 250.883 357.118 250.883 358.223V405.007C250.883 406.111 249.988 407.007 248.883 407.007H201.19C200.085 407.007 199.19 406.111 199.19 405.007V358.223Z" stroke="#837777"/>
<path d="M263.28 231.853C263.28 230.749 264.175 229.853 265.28 229.853H312.973C314.077 229.853 314.973 230.749 314.973 231.853V278.637C314.973 279.742 314.077 280.637 312.973 280.637H265.28C264.175 280.637 263.28 279.742 263.28 278.637V231.853Z" fill="#FFD369"/>
<path d="M263.28 231.853C263.28 230.749 264.175 229.853 265.28 229.853H312.973C314.077 229.853 314.973 230.749 314.973 231.853V278.637C314.973 279.742 314.077 280.637 312.973 280.637H265.28C264.175 280.637 263.28 279.742 263.28 278.637V231.853Z" stroke="#837777"/>
<path d="M263.28 295.033C263.28 293.929 264.175 293.033 265.28 293.033H312.973C314.077 293.033 314.973 293.929 314.973 295.033V341.826C314.973 342.93 314.077 343.826 312.973 343.826H265.28C264.175 343.826 263.28 342.93 263.28 341.826V295.033Z" fill="#FFD369"/>
<path d="M263.28 295.033C263.28 293.929 264.175 293.033 265.28 293.033H312.973C314.077 293.033 314.973 293.929 314.973 295.033V341.826C314.973 342.93 314.077 343.826 312.973 343.826H265.28C264.175 343.826 263.28 342.93 263.28 341.826V295.033Z" stroke="#837777"/>
<path d="M263.28 358.223C263.28 357.118 264.175 356.223 265.28 356.223H312.973C314.077 356.223 314.973 357.118 314.973 358.223V405.007C314.973 406.111 314.077 407.007 312.973 407.007H265.28C264.175 407.007 263.28 406.111 263.28 405.007V358.223Z" fill="#E6E6E6"/>
<path d="M263.28 358.223C263.28 357.118 264.175 356.223 265.28 356.223H312.973C314.077 356.223 314.973 357.118 314.973 358.223V405.007C314.973 406.111 314.077 407.007 312.973 407.007H265.28C264.175 407.007 263.28 406.111 263.28 405.007V358.223Z" stroke="#837777"/>
<path d="M383.938 58.9309V125.045C383.938 129.607 380.236 133.31 375.674 133.31H350.881C346.319 133.31 342.617 129.607 342.617 125.045V58.9309C342.617 54.369 346.319 50.6666 350.881 50.6666H375.674C380.236 50.6666 383.938 54.369 383.938 58.9309Z" fill="#DB7093"/>
<path d="M383.938 58.9309V125.045C383.938 129.607 380.236 133.31 375.674 133.31H350.881C346.319 133.31 342.617 129.607 342.617 125.045V58.9309C342.617 54.369 346.319 50.6666 350.881 50.6666H375.674C380.236 50.6666 383.938 54.369 383.938 58.9309Z" stroke="#837777"/>
<path d="M73.1969 174.967V438.688C73.1969 452.473 84.2464 463.645 97.8794 463.645H106.995C95.4852 461.532 86.7723 451.35 86.7723 439.104V192.62C87.702 190.083 90.1126 188.278 92.9429 188.278H440.966V175.383V174.967H73.1969Z" fill="#FAEAC3"/>
<path d="M73.1969 174.967V438.688C73.1969 452.473 84.2464 463.645 97.8794 463.645H106.995C95.4852 461.532 86.7723 451.35 86.7723 439.104V192.62C87.702 190.083 90.1126 188.278 92.9429 188.278H440.966V175.383V174.967H73.1969Z" stroke="#837777"/>
<path d="M151.711 133.31H138.489C133.927 133.31 130.224 129.607 130.224 125.045V58.9309C130.224 54.369 133.927 50.6666 138.489 50.6666H143.447V125.045C143.447 129.607 147.15 133.31 151.711 133.31Z" fill="#DA4F7D"/>
<path d="M151.711 133.31H138.489C133.927 133.31 130.224 129.607 130.224 125.045V58.9309C130.224 54.369 133.927 50.6666 138.489 50.6666H143.447V125.045C143.447 129.607 147.15 133.31 151.711 133.31Z" stroke="#837777"/>
<path d="M364.104 133.31H350.881C346.319 133.31 342.617 129.607 342.617 125.045V58.9309C342.617 54.369 346.319 50.6666 350.881 50.6666H355.839V125.045C355.839 129.607 359.542 133.31 364.104 133.31Z" fill="#DA4F7D"/>
<path d="M364.104 133.31H350.881C346.319 133.31 342.617 129.607 342.617 125.045V58.9309C342.617 54.369 346.319 50.6666 350.881 50.6666H355.839V125.045C355.839 129.607 359.542 133.31 364.104 133.31Z" stroke="#837777"/>
</svg>
