<svg width="186" height="186" viewBox="0 0 186 186" fill="none" xmlns="http://www.w3.org/2000/svg">
<path d="M174.193 31.7871V59.7598H11.8066V31.7871C11.8066 27.6057 14.1607 23.9729 17.6191 22.1493C19.1377 21.3428 20.8669 20.8887 22.7051 20.8887H163.295C167.476 20.8887 171.109 23.2427 172.933 26.7012C173.739 28.2197 174.193 29.9489 174.193 31.7871Z" fill="#FD646F"/>
<path d="M55.4004 20.8887V41.2324C55.4004 43.2377 53.7729 44.8652 51.7676 44.8652H35.0566C33.0513 44.8652 31.4238 43.2377 31.4238 41.2324V20.8887H55.4004Z" fill="#FC4755"/>
<path d="M148.764 20.8887V41.2324C148.764 43.2377 147.136 44.8652 145.131 44.8652H128.42C126.415 44.8652 124.787 43.2377 124.787 41.2324V20.8887H148.764Z" fill="#FC4755"/>
<path d="M17.6191 22.1493V59.7598H11.8066V31.7871C11.8066 27.6057 14.1607 23.9729 17.6191 22.1493Z" fill="#FC4755"/>
<path d="M41.5957 81.4912H60.2865C61.2895 81.4912 62.1029 82.3046 62.1029 83.3077V101.998C62.1029 103.001 61.2895 103.815 60.2865 103.815H41.5957C40.5927 103.815 39.7793 103.001 39.7793 101.998V83.3077C39.7793 82.3046 40.5927 81.4912 41.5957 81.4912V81.4912Z" fill="#E6E6E6"/>
<path d="M41.5957 109.264H60.2865C61.2895 109.264 62.1029 110.077 62.1029 111.081V129.775C62.1029 130.778 61.2895 131.591 60.2865 131.591H41.5957C40.5927 131.591 39.7793 130.778 39.7793 129.775V111.081C39.7793 110.077 40.5927 109.264 41.5957 109.264V109.264Z" fill="#E6E6E6"/>
<path d="M41.5957 137.041H60.2865C61.2895 137.041 62.1029 137.854 62.1029 138.857V157.548C62.1029 158.551 61.2895 159.364 60.2865 159.364H41.5957C40.5927 159.364 39.7793 158.551 39.7793 157.548V138.857C39.7793 137.854 40.5927 137.041 41.5957 137.041V137.041Z" fill="#E6E6E6"/>
<path d="M69.3685 81.4912H88.459C89.462 81.4912 90.2754 82.3046 90.2754 83.3077V101.998C90.2754 103.001 89.462 103.815 88.459 103.815H69.3685C68.3655 103.815 67.5521 103.001 67.5521 101.998V83.3077C67.5521 82.3046 68.3655 81.4912 69.3685 81.4912Z" fill="#E6E6E6"/>
<path d="M69.3685 109.264H88.459C89.462 109.264 90.2754 110.077 90.2754 111.081V129.775C90.2754 130.778 89.462 131.591 88.459 131.591H69.3685C68.3655 131.591 67.5521 130.778 67.5521 129.775V111.081C67.5521 110.077 68.3655 109.264 69.3685 109.264Z" fill="#E6E6E6"/>
<path d="M69.3685 137.041H88.459C89.462 137.041 90.2754 137.854 90.2754 138.857V157.548C90.2754 158.551 89.462 159.364 88.459 159.364H69.3685C68.3655 159.364 67.5521 158.551 67.5521 157.548V138.857C67.5521 137.854 68.3655 137.041 69.3685 137.041Z" fill="#E6E6E6"/>
<path d="M97.541 81.4912H116.631C117.634 81.4912 118.448 82.3046 118.448 83.3077V101.998C118.448 103.001 117.634 103.815 116.631 103.815H97.541C96.538 103.815 95.7246 103.001 95.7246 101.998V83.3077C95.7246 82.3046 96.538 81.4912 97.541 81.4912Z" fill="#E6E6E6"/>
<path d="M97.541 109.264H116.631C117.634 109.264 118.448 110.077 118.448 111.081V129.775C118.448 130.778 117.634 131.591 116.631 131.591H97.541C96.538 131.591 95.7246 130.778 95.7246 129.775V111.081C95.7246 110.077 96.538 109.264 97.541 109.264Z" fill="#E6E6E6"/>
<path d="M97.541 137.041H116.631C117.634 137.041 118.448 137.854 118.448 138.857V157.548C118.448 158.551 117.634 159.364 116.631 159.364H97.541C96.538 159.364 95.7246 158.551 95.7246 157.548V138.857C95.7246 137.854 96.538 137.041 97.541 137.041Z" fill="#E6E6E6"/>
<path d="M146.221 83.3077V101.998C146.221 103.001 145.407 103.815 144.404 103.815H125.714C124.71 103.815 123.897 103.001 123.897 101.998V83.3077C123.897 82.3046 124.71 81.4912 125.714 81.4912H144.404C145.407 81.4912 146.221 82.3046 146.221 83.3077Z" fill="#E6E6E6"/>
<path d="M125.714 109.264H144.404C145.407 109.264 146.221 110.077 146.221 111.081V129.775C146.221 130.778 145.407 131.591 144.404 131.591H125.714C124.71 131.591 123.897 130.778 123.897 129.775V111.081C123.897 110.077 124.71 109.264 125.714 109.264Z" fill="#E6E6E6"/>
<path d="M125.714 137.041H144.404C145.407 137.041 146.221 137.854 146.221 138.857V157.548C146.221 158.551 145.407 159.364 144.404 159.364H125.714C124.71 159.364 123.897 158.551 123.897 157.548V138.857C123.897 137.854 124.71 137.041 125.714 137.041Z" fill="#E6E6E6"/>
<path d="M11.8066 57.2168V172.377C11.8066 178.397 16.6855 183.275 22.7051 183.275H163.295C169.314 183.275 174.193 178.397 174.193 172.377V57.2168H11.8066Z" fill="#F5F5F5"/>
<path d="M55.4004 6.35742V35.4199C55.4004 37.4252 53.7729 39.0527 51.7676 39.0527H40.8691C38.8638 39.0527 37.2363 37.4252 37.2363 35.4199V6.35742C37.2363 4.35211 38.8638 2.72461 40.8691 2.72461H51.7676C53.7729 2.72461 55.4004 4.35211 55.4004 6.35742Z" fill="#50758D"/>
<path d="M39.7793 81.4912H62.1029V103.815H39.7793V81.4912Z" fill="#FFAC5C"/>
<path d="M123.897 81.4912H146.221V103.815H123.897V81.4912Z" fill="#FFAC5C"/>
<path d="M67.5521 81.4912H90.2754V103.815H67.5521V81.4912Z" fill="#FFAC5C"/>
<path d="M39.7793 109.264H62.1029V131.591H39.7793V109.264Z" fill="#FFAC5C"/>
<path d="M123.897 109.264H146.221V131.591H123.897V109.264Z" fill="#E6E6E6"/>
<path d="M67.5521 109.264H90.2754V131.591H67.5521V109.264Z" fill="#FFAC5C"/>
<path d="M39.7793 137.041H62.1029V159.364H39.7793V137.041Z" fill="#E6E6E6"/>
<path d="M123.897 137.041H146.221V159.364H123.897V137.041Z" fill="#E6E6E6"/>
<path d="M67.5521 137.041H90.2754V159.364H67.5521V137.041Z" fill="#E6E6E6"/>
<path d="M95.7246 81.4912H118.448V103.815H95.7246V81.4912Z" fill="#FFAC5C"/>
<path d="M95.7246 109.264H118.448V131.591H95.7246V109.264Z" fill="#FFAC5C"/>
<path d="M95.7246 137.041H118.448V159.364H95.7246V137.041Z" fill="#E6E6E6"/>
<path d="M148.764 6.35742V35.4199C148.764 37.4252 147.136 39.0527 145.131 39.0527H134.232C132.227 39.0527 130.6 37.4252 130.6 35.4199V6.35742C130.6 4.35211 132.227 2.72461 134.232 2.72461H145.131C147.136 2.72461 148.764 4.35211 148.764 6.35742Z" fill="#50758D"/>
<path d="M11.8066 57.2168V172.377C11.8066 178.397 16.6855 183.275 22.7051 183.275H26.7302C21.6479 182.353 17.8008 177.906 17.8008 172.559V64.9256C18.2113 63.8176 19.2757 63.0293 20.5254 63.0293H174.193V57.3984V57.2168H11.8066Z" fill="#E6E6E6"/>
<path d="M46.6816 39.0527H40.8691C38.8638 39.0527 37.2363 37.4252 37.2363 35.4199V6.35742C37.2363 4.35211 38.8638 2.72461 40.8691 2.72461H43.0488V35.4199C43.0488 37.4252 44.6763 39.0527 46.6816 39.0527Z" fill="#2B597F"/>
<path d="M140.045 39.0527H134.232C132.227 39.0527 130.6 37.4252 130.6 35.4199V6.35742C130.6 4.35211 132.227 2.72461 134.232 2.72461H136.412V35.4199C136.412 37.4252 138.04 39.0527 140.045 39.0527Z" fill="#2B597F"/>
<path d="M174.193 137.865C172.688 137.865 171.469 139.085 171.469 140.59V172.377C171.469 176.884 167.802 180.551 163.295 180.551H71.0215C69.5164 180.551 68.2969 181.771 68.2969 183.275C68.2969 184.78 69.5164 186 71.0215 186H163.295C170.807 186 176.918 179.889 176.918 172.377V140.59C176.918 139.085 175.698 137.865 174.193 137.865Z" fill="black"/>
<path d="M163.295 18.1641H151.488V6.35742C151.488 2.85212 148.636 0 145.131 0H134.232C130.727 0 127.875 2.85212 127.875 6.35742V18.1641H58.125V6.35742C58.125 2.85212 55.2729 0 51.7676 0H40.8691C37.3638 0 34.5117 2.85212 34.5117 6.35742V18.1641H22.7051C15.1931 18.1641 9.08203 24.2752 9.08203 31.7871V172.377C9.08203 179.889 15.1931 186 22.7051 186H58.3066C59.8117 186 61.0312 184.78 61.0312 183.275C61.0312 181.771 59.8117 180.551 58.3066 180.551H22.7051C18.1982 180.551 14.5312 176.884 14.5312 172.377V59.9414H118.248C119.753 59.9414 120.973 58.7215 120.973 57.2168C120.973 55.7121 119.753 54.4922 118.248 54.4922H14.5312V31.7871C14.5312 27.2799 18.1982 23.6133 22.7051 23.6133H34.5117V35.4199C34.5117 38.9252 37.3638 41.7773 40.8691 41.7773H51.7676C55.2729 41.7773 58.125 38.9252 58.125 35.4199V23.6133H127.875V35.4199C127.875 38.9252 130.727 41.7773 134.232 41.7773H145.131C148.636 41.7773 151.488 38.9252 151.488 35.4199V23.6133H163.295C167.802 23.6133 171.469 27.2799 171.469 31.7871V54.4922H130.963C129.458 54.4922 128.238 55.7121 128.238 57.2168C128.238 58.7215 129.458 59.9414 130.963 59.9414H171.469V127.875C171.469 129.38 172.688 130.6 174.193 130.6C175.698 130.6 176.918 129.38 176.918 127.875V31.7871C176.918 24.2752 170.807 18.1641 163.295 18.1641ZM52.6758 35.4199C52.6758 35.9205 52.2685 36.3281 51.7676 36.3281H40.8691C40.3682 36.3281 39.9609 35.9205 39.9609 35.4199V6.35742C39.9609 5.85682 40.3682 5.44922 40.8691 5.44922H51.7676C52.2685 5.44922 52.6758 5.85682 52.6758 6.35742V35.4199ZM146.039 35.4199C146.039 35.9205 145.632 36.3281 145.131 36.3281H134.232C133.731 36.3281 133.324 35.9205 133.324 35.4199V6.35742C133.324 5.85682 133.731 5.44922 134.232 5.44922H145.131C145.632 5.44922 146.039 5.85682 146.039 6.35742V35.4199Z" fill="black"/>
<path d="M121.171 164.814H146.168C149.202 164.814 151.67 162.346 151.67 159.312V134.315V106.541V81.5436C151.67 78.5098 149.202 76.0417 146.168 76.0417H121.171H93H64.829H39.832C36.7978 76.0417 34.3297 78.5098 34.3297 81.5436V106.541V134.315V159.312C34.3297 162.346 36.7978 164.814 39.832 164.814H64.829H93H121.171ZM39.7793 109.265H62.1044V131.59H39.7793V109.265ZM67.5536 109.265H90.2754V131.59H67.5536V109.265ZM146.221 131.59H123.896V109.265H146.221V131.59ZM118.446 131.59H95.7246V109.265H118.446V131.59ZM95.7246 137.039H118.446V159.365H95.7246V137.039ZM146.221 159.312C146.221 159.341 146.197 159.365 146.168 159.365H123.895V137.039H146.221V159.312ZM146.221 81.5436V103.816H123.896V81.4909H146.168C146.197 81.4909 146.221 81.5145 146.221 81.5436V81.5436ZM118.446 103.816H95.7246V81.4909H118.446V103.816ZM90.2754 103.816H67.5536V81.4909H90.2754V103.816ZM39.7793 81.5436C39.7793 81.5145 39.8029 81.4909 39.8323 81.4909H62.1047V103.816H39.7793V81.5436ZM39.7793 159.312V137.039H62.1044V159.365H39.832C39.8029 159.365 39.7793 159.341 39.7793 159.312V159.312ZM67.5536 137.039H90.2754V159.365H67.5536V137.039Z" fill="black"/>
</svg>
